<?xml version="1.0" encoding="UTF-8"?>
<svg id="Layer_1" data-name="Layer 1" xmlns="http://www.w3.org/2000/svg" viewBox="0 0 104.47 34">
  <path d="M34,27.39c0,4.96-2.78,6.61-7.08,6.61C17.94,34,0,15.58,0,7.08,0,2.13,2.78,0,7.08,0c9.21,0,26.92,18.18,26.92,27.39Z"/>
  <path d="M6.61,34c-4.96,0-6.61-2.78-6.61-7.08C0,17.94,18.42,0,26.92,0c4.96,0,7.08,2.78,7.08,7.08,0,9.21-18.18,26.92-27.39,26.92Z"/>
  <path d="M93.85,8.89l3.26,5.5h.13l3.27-5.5h3.85l-4.93,8.07,5.04,8.07h-3.92l-3.31-5.51h-.13l-3.31,5.51h-3.91l5.05-8.07-4.96-8.07h3.87Z"/>
  <path d="M76.4,25.03V8.89h10.88v2.81h-7.46v3.85h6.9v2.81h-6.9v3.85h7.5v2.81h-10.91Z"/>
  <path d="M61.36,25.03V8.89h6.37c1.22,0,2.27.23,3.13.7.86.46,1.52,1.11,1.97,1.93.46.82.69,1.77.69,2.84s-.23,2.02-.69,2.84c-.46.82-1.13,1.46-2.01,1.92-.87.46-1.93.69-3.17.69h-4.06v-2.73h3.51c.66,0,1.2-.11,1.62-.34.43-.23.75-.55.96-.95.22-.41.32-.88.32-1.41s-.11-1-.32-1.4c-.21-.4-.53-.72-.96-.94-.43-.23-.98-.34-1.64-.34h-2.3v13.35h-3.41Z"/>
  <path d="M46.88,25.03h-3.66l5.57-16.14h4.4l5.56,16.14h-3.66l-4.04-12.45h-.13l-4.05,12.45ZM46.65,18.68h8.64v2.66h-8.64v-2.66Z"/>
</svg>