<?xml version="1.0" encoding="UTF-8"?>
<svg id="Layer_1" data-name="Layer 1" xmlns="http://www.w3.org/2000/svg" viewBox="0 0 131.52 34">
  <path d="M18.82,8.5c-.23,3.31-1.82,8.5-1.82,8.5,0,0-1.57-5.67-1.8-8.5-.37-4.68.45-8.5,1.81-8.5s2.13,3.82,1.81,8.5Z"/>
  <path d="M15.18,25.5c.23-3.31,1.82-8.5,1.82-8.5,0,0,1.57,5.67,1.8,8.5.37,4.68-.45,8.5-1.81,8.5s-2.13-3.82-1.81-8.5Z"/>
  <path d="M8.5,15.18c3.31.23,8.5,1.82,8.5,1.82,0,0-5.67,1.57-8.5,1.8-4.68.37-8.5-.45-8.5-1.81s3.82-2.13,8.5-1.81Z"/>
  <path d="M25.5,18.82c-3.31-.23-8.5-1.82-8.5-1.82,0,0,5.67-1.57,8.5-1.8,4.68-.37,8.5.45,8.5,1.81s-3.82,2.13-8.5,1.81Z"/>
  <path d="M12.27,9.7c2.18,2.5,4.73,7.3,4.73,7.3,0,0-5.12-2.89-7.28-4.74-3.57-3.04-5.69-6.33-4.73-7.29.96-.96,4.2,1.19,7.29,4.73Z"/>
  <path d="M21.73,24.3c-2.18-2.5-4.73-7.3-4.73-7.3,0,0,5.12,2.89,7.28,4.74,3.57,3.04,5.69,6.33,4.73,7.29-.96.96-4.2-1.19-7.29-4.73Z"/>
  <path d="M9.7,21.73c2.5-2.18,7.3-4.73,7.3-4.73,0,0-2.89,5.12-4.74,7.28-3.04,3.57-6.33,5.69-7.29,4.73-.96-.96,1.19-4.2,4.73-7.29Z"/>
  <path d="M24.3,12.27c-2.5,2.18-7.3,4.73-7.3,4.73,0,0,2.89-5.12,4.74-7.28,3.04-3.57,6.33-5.69,7.29-4.73.96.96-1.19,4.2-4.73,7.29Z"/>
  <path d="M128.92,25.5V8.5h2.6v17h-2.6Z"/>
  <path d="M119.97,25.74c-1.02,0-1.95-.26-2.79-.78-.82-.52-1.47-1.22-1.96-2.1-.47-.9-.71-1.9-.71-3s.24-2.12.71-3c.49-.9,1.14-1.61,1.96-2.12.83-.54,1.76-.8,2.79-.8.87,0,1.63.19,2.29.57.68.36,1.21.87,1.61,1.51.39.65.59,1.38.59,2.2v3.26c0,.82-.2,1.55-.59,2.2-.38.65-.9,1.16-1.58,1.53-.68.36-1.45.54-2.31.54ZM120.4,23.28c.96,0,1.73-.32,2.31-.97.6-.65.9-1.47.9-2.48,0-.68-.13-1.27-.4-1.79-.27-.52-.65-.92-1.13-1.2-.47-.3-1.03-.45-1.68-.45s-1.19.15-1.68.45c-.47.28-.85.68-1.13,1.2-.27.52-.4,1.12-.4,1.79s.13,1.27.4,1.79c.28.52.66.93,1.13,1.23.49.28,1.05.42,1.68.42ZM123.44,25.5v-3.05l.45-2.76-.45-2.74v-2.79h2.6v11.33h-2.6Z"/>
  <path d="M109.71,25.5v-11.33h2.6v11.33h-2.6ZM111.01,12.09c-.44,0-.81-.15-1.11-.45-.28-.3-.43-.67-.43-1.11s.14-.81.43-1.11c.3-.3.67-.45,1.11-.45s.83.15,1.11.45c.28.3.42.67.42,1.11s-.14.81-.42,1.11c-.28.3-.65.45-1.11.45Z"/>
  <path d="M102.49,25.5V9.44h2.6v16.06h-2.6ZM99.78,16.53v-2.36h8.03v2.36h-8.03Z"/>
  <path d="M94.33,25.74c-.63,0-1.24-.08-1.82-.24-.58-.17-1.12-.41-1.61-.71-.49-.31-.91-.69-1.28-1.13l1.65-1.65c.39.46.84.8,1.35,1.04.52.22,1.1.33,1.75.33.58,0,1.02-.09,1.32-.26.3-.17.45-.42.45-.76s-.14-.61-.43-.8c-.28-.19-.65-.35-1.11-.47-.44-.14-.91-.28-1.42-.42-.49-.14-.96-.33-1.42-.57-.44-.25-.8-.59-1.09-1.02-.28-.43-.43-.98-.43-1.65,0-.72.17-1.35.5-1.87.35-.52.83-.92,1.44-1.2.63-.28,1.38-.43,2.24-.43.91,0,1.72.17,2.41.5.71.31,1.3.79,1.77,1.44l-1.65,1.65c-.33-.41-.71-.72-1.13-.92-.43-.2-.91-.31-1.46-.31-.52,0-.92.08-1.2.24-.28.16-.42.39-.42.68,0,.31.14.56.42.73.28.17.65.32,1.09.45.46.13.93.27,1.42.42.5.14.98.35,1.42.61.46.25.83.6,1.11,1.04.28.42.42.98.42,1.68,0,1.1-.39,1.98-1.16,2.62-.77.65-1.82.97-3.14.97Z"/>
  <path d="M83.28,25.74c-1.13,0-2.16-.25-3.07-.76-.9-.52-1.61-1.23-2.15-2.12-.52-.9-.78-1.9-.78-3.02s.26-2.12.78-3c.52-.9,1.22-1.61,2.1-2.12.9-.52,1.89-.78,2.97-.78s1.98.24,2.79.73c.82.49,1.46,1.16,1.91,2.01.47.85.71,1.82.71,2.9,0,.19-.02.39-.05.59-.01.19-.05.4-.09.64h-9.3v-2.12h7.96l-.97.85c-.03-.69-.17-1.27-.4-1.75-.24-.47-.57-.83-1.02-1.09-.43-.25-.95-.38-1.58-.38-.66,0-1.24.14-1.72.42-.49.28-.87.68-1.13,1.2-.27.5-.4,1.11-.4,1.82s.14,1.33.42,1.87c.28.54.68.95,1.2,1.25.52.28,1.12.42,1.79.42.58,0,1.12-.1,1.61-.31.5-.2.93-.5,1.28-.9l1.65,1.68c-.55.65-1.22,1.13-2.01,1.46-.79.33-1.62.5-2.5.5Z"/>
  <path d="M72.52,25.5V8.5h2.6v17h-2.6Z"/>
  <path d="M65.18,25.74c-1.13,0-2.16-.25-3.07-.76-.9-.52-1.61-1.23-2.15-2.12-.52-.9-.78-1.9-.78-3.02s.26-2.12.78-3c.52-.9,1.22-1.61,2.1-2.12.9-.52,1.89-.78,2.98-.78s1.98.24,2.79.73c.82.49,1.46,1.16,1.91,2.01.47.85.71,1.82.71,2.9,0,.19-.02.39-.05.59-.02.19-.05.4-.09.64h-9.3v-2.12h7.96l-.97.85c-.03-.69-.17-1.27-.4-1.75-.24-.47-.57-.83-1.02-1.09-.43-.25-.95-.38-1.58-.38-.66,0-1.24.14-1.72.42-.49.28-.87.68-1.13,1.2-.27.5-.4,1.11-.4,1.82s.14,1.33.43,1.87c.28.54.68.95,1.2,1.25.52.28,1.12.42,1.79.42.58,0,1.12-.1,1.61-.31.5-.2.93-.5,1.28-.9l1.65,1.68c-.55.65-1.22,1.13-2.01,1.46-.79.33-1.62.5-2.5.5Z"/>
  <path d="M52,25.74c-1.2,0-2.31-.21-3.33-.64-1.01-.44-1.89-1.05-2.64-1.82-.76-.79-1.34-1.69-1.75-2.72-.41-1.04-.61-2.15-.61-3.33s.2-2.28.61-3.31c.41-1.04.99-1.94,1.75-2.72.76-.77,1.64-1.38,2.64-1.82,1.02-.44,2.13-.66,3.33-.66,1.34,0,2.49.22,3.47.66.98.44,1.84,1.04,2.6,1.79l-1.84,1.84c-.49-.54-1.09-.95-1.79-1.25-.69-.3-1.5-.45-2.43-.45-.82,0-1.57.14-2.24.43-.68.28-1.27.69-1.77,1.23-.49.52-.87,1.14-1.13,1.87-.27.72-.4,1.52-.4,2.38s.13,1.66.4,2.38c.27.72.65,1.35,1.13,1.89.5.52,1.09.92,1.77,1.2.68.28,1.42.43,2.24.43,1.01,0,1.86-.15,2.55-.45.71-.31,1.31-.74,1.79-1.27l1.84,1.84c-.76.77-1.64,1.38-2.67,1.82-1.02.44-2.2.66-3.52.66Z"/>
</svg>