<?xml version="1.0" standalone="no"?>
<!DOCTYPE svg PUBLIC "-//W3C//DTD SVG 20010904//EN"
 "http://www.w3.org/TR/2001/REC-SVG-20010904/DTD/svg10.dtd">
<svg version="1.0" xmlns="http://www.w3.org/2000/svg"
 width="200.000000pt" height="200.000000pt" viewBox="0 0 200.000000 200.000000"
 preserveAspectRatio="xMidYMid meet">

<g transform="translate(0.000000,200.000000) scale(0.100000,-0.100000)"
fill="#000000" stroke="none">
<path d="M0 1000 l0 -1000 1000 0 1000 0 0 1000 0 1000 -1000 0 -1000 0 0
-1000z m965 527 l60 -22 3 -168 c2 -144 0 -168 -13 -173 -15 -6 -129 29 -150
46 -6 5 -9 72 -7 174 3 191 -3 183 107 143z m-220 -11 l60 -23 5 -503 c4 -369
2 -507 -6 -519 -11 -14 -20 -13 -85 10 l-74 26 -3 504 c-1 277 0 510 3 517 6
17 31 14 100 -12z m425 -110 l65 -24 3 -158 c2 -112 -1 -160 -9 -165 -12 -7
-96 18 -138 40 -20 11 -21 20 -21 165 0 84 3 156 7 159 10 11 23 8 93 -17z
m222 -172 l68 -26 0 -249 c0 -224 -2 -250 -17 -256 -22 -8 -150 36 -157 54 -8
20 -8 467 0 487 8 22 28 20 106 -10z m-217 -357 l60 -22 3 -163 2 -162 -22 1
c-13 0 -50 10 -83 22 l-60 22 -3 150 c-1 82 0 155 2 162 7 18 31 15 101 -10z
m-210 -61 l60 -23 3 -167 c2 -142 0 -167 -13 -172 -8 -4 -46 4 -83 17 l-67 24
-3 173 -2 172 22 -1 c13 0 50 -10 83 -23z"/>
</g>
</svg>
