<?xml version="1.0" encoding="UTF-8"?>
<svg id="Layer_1" data-name="Layer 1" xmlns="http://www.w3.org/2000/svg" viewBox="0 0 155 29.58">
  <path d="M0,0s0,14.79,14.79,14.79C14.79,0,0,0,0,0Z"/>
  <path d="M29.58,0s-14.79,0-14.79,14.79C29.58,14.79,29.58,0,29.58,0Z"/>
  <path d="M0,29.58s14.79,0,14.79-14.79C0,14.79,0,29.58,0,29.58Z"/>
  <path d="M29.58,29.58s0-14.79-14.79-14.79c0,14.79,14.79,14.79,14.79,14.79Z"/>
  <path d="M42.73,22.41V6.76h10.54v2.73h-7.23v3.73h6.69v2.73h-6.69v3.74h7.26v2.73h-10.57Z"/>
  <path d="M60.39,22.64c-1.2,0-2.24-.25-3.1-.76-.86-.51-1.52-1.23-1.99-2.14-.46-.91-.69-1.96-.69-3.15s.23-2.26.7-3.16c.47-.91,1.13-1.62,1.99-2.13.86-.51,1.88-.77,3.07-.77,1.02,0,1.92.19,2.69.56.77.37,1.38.89,1.83,1.57.45.67.7,1.46.74,2.37h-3.07c-.09-.59-.32-1.06-.69-1.41-.37-.36-.85-.54-1.44-.54-.5,0-.94.14-1.32.41-.37.27-.66.66-.87,1.18-.21.52-.31,1.15-.31,1.89s.1,1.39.31,1.91c.21.52.5.92.88,1.2.38.28.82.41,1.32.41.37,0,.71-.08,1-.23.3-.15.55-.37.74-.66.2-.3.33-.65.39-1.06h3.07c-.05.9-.3,1.69-.73,2.37-.43.68-1.03,1.21-1.8,1.59-.76.38-1.67.57-2.71.57Z"/>
  <path d="M70.21,15.62v6.78h-3.25V6.76h3.16v5.98h.14c.26-.69.69-1.23,1.28-1.63.59-.4,1.33-.6,2.22-.6.81,0,1.53.18,2.13.53.61.35,1.08.86,1.42,1.52.34.66.51,1.44.5,2.36v7.47h-3.25v-6.89c0-.72-.18-1.29-.55-1.69-.37-.4-.88-.6-1.54-.6-.44,0-.84.09-1.18.28-.34.19-.6.46-.79.82-.19.36-.29.79-.29,1.29Z"/>
  <path d="M84.93,22.64c-1.19,0-2.21-.25-3.08-.76-.86-.51-1.53-1.22-1.99-2.12-.47-.91-.7-1.97-.7-3.17s.23-2.27.7-3.18c.47-.91,1.13-1.62,1.99-2.12.87-.51,1.89-.76,3.08-.76s2.21.25,3.07.76c.87.5,1.53,1.21,2,2.12.47.91.7,1.97.7,3.18s-.23,2.26-.7,3.17c-.47.91-1.14,1.61-2,2.12-.86.5-1.88.76-3.07.76ZM84.95,20.12c.54,0,.99-.15,1.35-.46.36-.31.63-.73.82-1.27.19-.53.28-1.14.28-1.83s-.09-1.29-.28-1.83c-.18-.53-.46-.96-.82-1.27-.36-.31-.81-.47-1.35-.47s-1,.16-1.38.47c-.37.31-.64.73-.83,1.27-.18.53-.28,1.14-.28,1.83s.09,1.29.28,1.83c.19.53.47.96.83,1.27.37.31.83.46,1.38.46Z"/>
  <path d="M99.18,6.76l3.78,11.89h.15l3.79-11.89h3.67l-5.39,15.64h-4.26l-5.4-15.64h3.67Z"/>
  <path d="M113.68,22.63c-.75,0-1.42-.13-2-.39-.59-.26-1.05-.65-1.39-1.17-.34-.52-.5-1.17-.5-1.94,0-.65.12-1.2.36-1.64.24-.44.57-.8.98-1.07.41-.27.88-.47,1.41-.61.53-.14,1.08-.23,1.67-.29.68-.07,1.23-.14,1.65-.2.42-.07.72-.16.91-.29.19-.13.28-.32.28-.57v-.05c0-.48-.15-.86-.46-1.12-.3-.26-.73-.4-1.28-.4-.58,0-1.05.13-1.4.39-.35.25-.57.58-.69.96l-3.01-.24c.15-.71.45-1.33.9-1.85.45-.52,1.03-.93,1.73-1.21.71-.29,1.54-.43,2.47-.43.65,0,1.28.08,1.87.23.6.15,1.13.39,1.6.71.47.32.84.73,1.11,1.24.27.5.41,1.1.41,1.8v7.91h-3.09v-1.63h-.09c-.19.37-.44.69-.76.97-.32.27-.69.49-1.14.65-.44.15-.95.23-1.54.23ZM114.61,20.38c.48,0,.9-.09,1.27-.28.37-.19.65-.45.86-.78.21-.33.31-.7.31-1.11v-1.25c-.1.07-.24.13-.42.18-.17.05-.37.1-.59.15-.22.04-.44.08-.66.11-.22.03-.42.06-.6.08-.38.06-.72.15-1,.27-.28.12-.51.29-.67.5-.16.2-.24.46-.24.76,0,.44.16.78.48,1.02.33.23.74.34,1.24.34Z"/>
  <path d="M125.31,6.76v15.64h-3.25V6.76h3.25Z"/>
  <path d="M130.42,6.76v15.64h-3.25V6.76h3.25Z"/>
  <path d="M137.62,22.64c-1.21,0-2.25-.24-3.12-.73-.87-.49-1.53-1.19-2-2.09-.47-.91-.7-1.98-.7-3.22s.23-2.27.7-3.18c.47-.91,1.13-1.62,1.98-2.13.86-.51,1.86-.76,3.01-.76.77,0,1.49.12,2.16.37.67.24,1.26.61,1.76,1.11.5.49.9,1.12,1.18,1.86.28.74.42,1.61.42,2.61v.89h-9.91v-2.02h6.84c0-.47-.1-.88-.31-1.25-.2-.36-.49-.64-.85-.85-.36-.21-.77-.31-1.24-.31s-.93.11-1.31.34c-.38.22-.67.53-.89.91-.21.38-.32.8-.33,1.26v1.92c0,.58.11,1.08.32,1.5.22.42.53.75.92.98.4.23.87.34,1.41.34.36,0,.69-.05.99-.15.3-.1.56-.25.77-.46.21-.2.38-.45.49-.75l3.01.2c-.15.72-.47,1.35-.94,1.89-.47.53-1.07.95-1.82,1.25-.74.3-1.59.44-2.56.44Z"/>
  <path d="M146.07,26.81c-.41,0-.8-.03-1.16-.1-.36-.06-.65-.14-.89-.24l.73-2.43c.38.12.73.18,1.03.19.31.01.58-.06.8-.21.23-.15.42-.41.56-.78l.19-.5-4.21-12.07h3.42l2.43,8.62h.12l2.45-8.62h3.45l-4.56,13c-.22.63-.52,1.18-.89,1.65-.37.47-.84.84-1.41,1.09-.57.26-1.26.39-2.06.39Z"/>
</svg>