<?xml version="1.0" standalone="no"?>
<!DOCTYPE svg PUBLIC "-//W3C//DTD SVG 20010904//EN"
 "http://www.w3.org/TR/2001/REC-SVG-20010904/DTD/svg10.dtd">
<svg version="1.0" xmlns="http://www.w3.org/2000/svg"
 width="200.000000pt" height="200.000000pt" viewBox="0 0 200.000000 200.000000"
 preserveAspectRatio="xMidYMid meet">

<g transform="translate(0.000000,200.000000) scale(0.100000,-0.100000)"
fill="#000000" stroke="none">
<path d="M668 1702 c-181 -108 -328 -199 -328 -202 0 -3 165 -104 368 -226
l367 -220 3 -447 c2 -348 5 -447 15 -447 6 1 156 87 332 193 l320 193 0 454 0
454 -370 223 c-203 122 -372 222 -375 222 -3 0 -152 -89 -332 -197z"/>
<path d="M252 949 l3 -403 328 -197 c206 -124 330 -193 333 -185 2 7 3 74 2
150 l-3 139 -205 122 -205 123 -5 253 -5 253 -90 54 c-49 30 -105 63 -123 74
l-32 20 2 -403z"/>
</g>
</svg>
