<?xml version="1.0" standalone="no"?>
<!DOCTYPE svg PUBLIC "-//W3C//DTD SVG 20010904//EN"
 "http://www.w3.org/TR/2001/REC-SVG-20010904/DTD/svg10.dtd">
<svg version="1.0" xmlns="http://www.w3.org/2000/svg"
 width="200.000000pt" height="200.000000pt" viewBox="0 0 200.000000 200.000000"
 preserveAspectRatio="xMidYMid meet">

<g transform="translate(0.000000,200.000000) scale(0.100000,-0.100000)"
fill="#000000" stroke="none">
<path d="M0 1000 l0 -1000 1000 0 1000 0 0 1000 0 1000 -1000 0 -1000 0 0
-1000z m1343 384 c183 -130 338 -243 346 -250 11 -10 9 -19 -15 -53 -16 -22
-33 -41 -37 -41 -4 0 -147 99 -316 220 -170 121 -312 220 -315 220 -4 0 -147
-100 -318 -222 l-311 -222 -33 39 c-19 23 -30 45 -26 52 4 7 46 39 94 73 l87
61 3 157 3 157 160 0 160 0 5 -37 5 -36 80 58 c44 33 84 59 88 60 5 0 158
-106 340 -236z m-195 -196 l3 -88 172 -2 172 -3 0 -330 0 -330 -490 0 -490 0
-3 333 -2 332 125 0 125 0 0 83 c0 46 3 87 7 91 4 3 90 5 192 4 l186 -3 3 -87z"/>
<path d="M610 1405 l0 -66 53 39 c36 27 53 47 55 65 3 26 2 27 -52 27 l-56 0
0 -65z"/>
<path d="M860 1020 l0 -160 95 0 95 0 0 160 0 160 -95 0 -95 0 0 -160z"/>
<path d="M620 925 l0 -65 70 0 70 0 0 65 0 65 -70 0 -70 0 0 -65z"/>
<path d="M1150 770 l0 -220 120 0 120 0 0 220 0 220 -120 0 -120 0 0 -220z"/>
<path d="M620 655 l0 -105 215 0 215 0 0 105 0 105 -215 0 -215 0 0 -105z"/>
</g>
</svg>
