<?xml version="1.0" standalone="no"?>
<!DOCTYPE svg PUBLIC "-//W3C//DTD SVG 20010904//EN"
 "http://www.w3.org/TR/2001/REC-SVG-20010904/DTD/svg10.dtd">
<svg version="1.0" xmlns="http://www.w3.org/2000/svg"
 width="200.000000pt" height="200.000000pt" viewBox="0 0 200.000000 200.000000"
 preserveAspectRatio="xMidYMid meet">

<g transform="translate(0.000000,200.000000) scale(0.100000,-0.100000)"
fill="#000000" stroke="none">
<path d="M771 1624 c-68 -18 -127 -36 -131 -41 -4 -4 -23 -66 -41 -136 l-32
-128 46 -47 47 -47 -47 -47 -47 -48 35 -137 35 -137 137 -35 137 -36 47 47 48
48 46 -46 47 -47 131 33 c72 18 133 36 136 39 2 4 20 66 38 138 l35 130 -46
47 -46 46 42 43 c23 23 42 51 42 60 0 10 -14 73 -31 141 l-31 123 -136 36
-137 36 -47 -47 -48 -46 -48 47 c-26 26 -50 46 -52 46 -3 -1 -61 -16 -129 -35z
m144 -84 l29 -30 -44 -45 -44 -45 -53 52 c-29 29 -53 55 -53 58 0 5 82 29 131
39 3 0 18 -13 34 -29z m270 14 c36 -9 65 -19 65 -23 0 -4 -24 -30 -53 -59
l-53 -52 -44 45 -44 45 29 30 c16 16 30 30 32 30 2 0 33 -7 68 -16z m-427
-231 l-42 -43 -30 29 -29 30 12 58 c7 32 16 62 18 66 3 5 30 -15 59 -44 l54
-53 -42 -43z m575 80 l16 -68 -29 -30 -30 -29 -45 44 -45 44 52 53 c29 29 55
53 58 53 4 0 14 -30 23 -67z m-285 4 l42 -43 -45 -44 -45 -44 -40 39 c-22 21
-40 44 -40 49 0 11 70 86 80 86 3 0 25 -19 48 -43z m-146 -229 l-42 -42 -45
44 -45 44 42 43 42 43 46 -45 45 -45 -43 -42z m293 2 c-21 -22 -44 -40 -50
-40 -6 0 -29 18 -50 40 l-39 40 44 45 44 45 45 -45 45 -45 -39 -40z m-430 -60
l39 -40 -56 -57 -56 -56 -16 53 c-9 30 -16 63 -16 74 0 22 37 66 55 66 6 0 29
-18 50 -40z m283 -3 l42 -43 -43 -42 -43 -42 -33 27 c-56 47 -58 60 -15 104
21 21 41 39 44 39 3 0 25 -19 48 -43z m275 15 l26 -27 -16 -65 c-9 -36 -18
-67 -20 -69 -2 -3 -28 19 -58 49 l-55 54 42 43 c23 24 45 43 48 43 4 0 18 -12
33 -28z m-421 -149 c21 -20 38 -42 38 -47 0 -5 -12 -22 -26 -37 -26 -27 -26
-27 -82 -12 -31 7 -63 16 -71 19 -10 3 2 21 39 59 30 30 57 55 59 55 3 0 22
-17 43 -37z m340 -74 c-4 -4 -34 -13 -67 -20 -60 -12 -61 -12 -90 15 l-29 27
44 44 44 45 53 -52 c29 -29 50 -55 45 -59z"/>
<path d="M340 470 l0 -160 40 0 40 0 0 50 0 50 40 0 c71 0 115 34 120 90 5 53
-1 73 -29 101 -28 28 -33 29 -120 29 l-91 0 0 -160z m154 75 c26 -27 -5 -65
-53 -65 -18 0 -21 6 -21 40 0 38 2 40 29 40 16 0 36 -7 45 -15z"/>
<path d="M640 470 l0 -160 90 0 90 0 0 35 0 35 -50 0 -50 0 0 125 0 125 -40 0
-40 0 0 -160z"/>
<path d="M976 622 c-3 -5 -31 -73 -62 -153 -31 -79 -58 -147 -61 -151 -2 -5
17 -8 42 -8 38 0 48 4 52 20 5 17 14 20 65 20 51 0 61 -3 65 -20 4 -16 14 -20
49 -20 24 0 44 2 44 6 0 3 -27 75 -61 160 l-61 154 -33 0 c-19 0 -36 -4 -39
-8z m63 -184 c1 -13 -7 -18 -29 -18 -16 0 -30 1 -30 3 0 2 8 25 17 52 l16 49
13 -34 c7 -19 13 -43 13 -52z"/>
<path d="M1220 470 l0 -160 40 0 40 0 0 160 0 160 -40 0 -40 0 0 -160z"/>
<path d="M1370 470 l0 -162 99 4 c90 3 102 5 126 28 40 37 55 73 55 130 0 57
-15 93 -55 130 -24 23 -36 25 -126 28 l-99 4 0 -162z m175 65 c56 -55 16 -160
-58 -153 l-32 3 -3 74 c-2 41 -1 80 2 88 9 22 64 15 91 -12z"/>
</g>
</svg>
