<?xml version="1.0" encoding="UTF-8"?>
<svg id="Layer_1" data-name="Layer 1" xmlns="http://www.w3.org/2000/svg" viewBox="0 0 135 18.31">
  <path d="M111.21,18.31V.03h23.79v3.96h-18.17v3.2h14.63v3.96h-14.63v3.2h18.17v3.96h-23.79Z"/>
  <path d="M87.81,18.31c-.95,0-1.84-.17-2.65-.51-.81-.34-1.45-.8-1.93-1.37-.48-.58-.72-1.2-.72-1.88v-1.7h5.55v1.5h14.6v-3.2h-14.85c-.95,0-1.84-.17-2.65-.51-.81-.34-1.45-.79-1.93-1.35-.48-.58-.72-1.21-.72-1.9v-3.61c0-.69.24-1.32.72-1.88.48-.58,1.12-1.03,1.93-1.37.81-.34,1.69-.51,2.65-.51h15.17c.95,0,1.82.17,2.61.51.81.34,1.46.8,1.93,1.37.5.56.75,1.18.75,1.88v1.7h-5.62v-1.5h-14.6v3.2h14.92c.95,0,1.82.17,2.61.51.81.34,1.46.8,1.93,1.37.5.56.75,1.18.75,1.88v3.61c0,.68-.25,1.3-.75,1.88-.48.58-1.12,1.03-1.93,1.37-.79.34-1.66.51-2.61.51h-15.17Z"/>
  <path d="M55.81,18.31V0h5.55v14.34h20.21v3.96h-25.76Z"/>
  <path d="M32.45,18.31c-.95,0-1.84-.17-2.65-.51-.81-.34-1.45-.8-1.93-1.37-.48-.58-.72-1.2-.72-1.88V.03h5.55v14.32h14.6V.03h5.62v14.52c0,.68-.25,1.3-.75,1.88-.48.58-1.12,1.03-1.93,1.37-.79.34-1.66.51-2.61.51h-15.17Z"/>
  <path d="M0,18.31V.05h20.43c.98,0,1.86.17,2.65.51.81.34,1.45.8,1.93,1.37.5.58.75,1.2.75,1.88v4.72c0,.68-.25,1.3-.75,1.88-.48.58-1.12,1.03-1.93,1.37-.79.34-1.67.51-2.65.51l-14.88.03v5.99H0ZM5.55,8.33h14.6V3.99H5.55v4.34Z"/>
</svg>