<?xml version="1.0" encoding="UTF-8"?>
<svg id="Layer_1" data-name="Layer 1" xmlns="http://www.w3.org/2000/svg" viewBox="0 0 131.84 34">
  <path d="M15.69,17.44c-2.62,0-5.23,5.67-9.59,5.67-3.37,0-6.1-2.73-6.1-6.1s2.73-6.1,6.1-6.1c4.36,0,6.97,5.67,9.59,5.67v.87Z"/>
  <path d="M18.31,16.56c2.62,0,5.23-5.67,9.59-5.67,3.37,0,6.1,2.73,6.1,6.1s-2.73,6.1-6.1,6.1c-4.36,0-6.97-5.67-9.59-5.67v-.87Z"/>
  <path d="M17.44,18.31c0,2.62,5.67,5.23,5.67,9.59,0,3.37-2.73,6.1-6.1,6.1s-6.1-2.73-6.1-6.1c0-4.36,5.67-6.97,5.67-9.59h.87Z"/>
  <path d="M16.56,15.69c0-2.62-5.67-5.23-5.67-9.59,0-3.37,2.73-6.1,6.1-6.1s6.1,2.73,6.1,6.1c0,4.36-5.67,6.97-5.67,9.59h-.87Z"/>
  <path d="M15.69,16.56h2.62v.87h-2.62v-.87Z"/>
  <path d="M16.56,18.31v-2.62h.87v2.62h-.87Z"/>
  <path d="M115.95,24.41v-10.94h2.89v1.93h.13c.23-.64.61-1.15,1.14-1.52.53-.37,1.17-.56,1.91-.56s1.39.19,1.91.56c.53.37.88.87,1.05,1.51h.11c.22-.63.63-1.13,1.21-1.5.59-.38,1.28-.57,2.09-.57,1.02,0,1.85.33,2.49.98.64.65.96,1.56.96,2.75v7.36h-3.03v-6.76c0-.61-.16-1.06-.48-1.37-.32-.3-.73-.46-1.21-.46-.55,0-.98.18-1.29.53-.31.35-.46.8-.46,1.37v6.68h-2.94v-6.82c0-.54-.15-.96-.46-1.28-.3-.32-.71-.48-1.2-.48-.34,0-.64.09-.91.26-.27.17-.48.4-.63.7-.16.3-.24.65-.24,1.05v6.57h-3.03Z"/>
  <path d="M110.49,19.75v-6.28h3.03v10.94h-2.91v-1.99h-.11c-.25.64-.66,1.16-1.23,1.55-.57.39-1.26.58-2.09.58-.73,0-1.37-.17-1.93-.5-.56-.33-.99-.8-1.3-1.42-.31-.61-.47-1.35-.47-2.2v-6.96h3.03v6.42c0,.65.18,1.16.52,1.53.34.38.8.56,1.37.56.37,0,.71-.08,1.03-.25.32-.17.57-.42.77-.75.2-.33.3-.74.29-1.23Z"/>
  <path d="M101.5,13.47v2.28h-6.59v-2.28h6.59ZM96.41,10.85h3.03v10.2c0,.28.04.5.13.66.09.15.2.26.36.32.16.06.34.09.54.09.14,0,.29-.01.43-.04.14-.03.25-.05.33-.06l.48,2.26c-.15.05-.36.1-.64.16-.28.07-.61.11-1,.12-.73.03-1.37-.07-1.92-.29-.55-.22-.97-.57-1.28-1.04-.3-.47-.45-1.06-.45-1.78v-10.6Z"/>
  <path d="M86.24,18.09v6.32h-3.03v-10.94h2.89v1.93h.13c.24-.64.65-1.14,1.22-1.51.57-.38,1.26-.56,2.07-.56.76,0,1.42.17,1.99.5s1,.81,1.32,1.42c.31.61.47,1.34.47,2.19v6.96h-3.03v-6.42c0-.67-.17-1.19-.51-1.57-.35-.38-.82-.57-1.43-.57-.41,0-.77.09-1.08.26-.31.18-.55.43-.73.77-.17.33-.26.73-.26,1.2Z"/>
  <path d="M74.69,24.62c-.7,0-1.32-.12-1.87-.36-.55-.25-.98-.61-1.3-1.09-.31-.48-.47-1.09-.47-1.81,0-.61.11-1.12.33-1.53s.53-.75.91-1c.38-.25.82-.44,1.31-.57.49-.13,1.01-.22,1.55-.27.64-.07,1.15-.13,1.54-.19.39-.06.67-.15.85-.27.18-.12.26-.29.26-.53v-.04c0-.45-.14-.8-.43-1.05-.28-.25-.68-.37-1.2-.37-.55,0-.98.12-1.3.36-.32.24-.54.54-.64.9l-2.81-.23c.14-.66.42-1.24.84-1.72.42-.49.96-.86,1.62-1.13.66-.27,1.43-.4,2.31-.4.61,0,1.19.07,1.74.21.56.14,1.06.36,1.49.66.44.3.78.68,1.03,1.15.25.47.38,1.02.38,1.67v7.38h-2.88v-1.52h-.09c-.18.34-.41.64-.71.9-.29.26-.65.46-1.06.61-.41.14-.89.21-1.43.21ZM75.56,22.52c.45,0,.84-.09,1.18-.26.34-.18.61-.42.8-.73.19-.3.29-.65.29-1.03v-1.16c-.09.06-.23.12-.39.17-.16.05-.34.09-.55.14-.2.04-.41.07-.61.11-.2.03-.39.05-.56.08-.36.05-.67.14-.93.25-.27.11-.47.27-.62.46-.15.19-.22.43-.22.71,0,.41.15.73.45.95.3.21.69.32,1.15.32Z"/>
  <path d="M66.12,19.75v-6.28h3.03v10.94h-2.91v-1.99h-.11c-.25.64-.66,1.16-1.23,1.55-.57.39-1.26.58-2.09.58-.73,0-1.37-.17-1.93-.5-.56-.33-.99-.8-1.3-1.42-.31-.61-.47-1.35-.47-2.2v-6.96h3.03v6.42c0,.65.18,1.16.52,1.53.34.38.8.56,1.37.56.37,0,.71-.08,1.03-.25.32-.17.57-.42.77-.75.2-.33.3-.74.29-1.23Z"/>
  <path d="M48.98,19.34h2.62l1.32,1.69,1.3,1.51,2.44,3.06h-2.88l-1.68-2.06-.86-1.22-2.26-2.98ZM56.87,17.12c0,1.59-.3,2.94-.9,4.06-.6,1.12-1.41,1.97-2.45,2.56-1.03.58-2.19.88-3.47.88s-2.46-.29-3.49-.88-1.84-1.44-2.44-2.56c-.6-1.12-.9-2.47-.9-4.05s.3-2.94.9-4.06c.6-1.12,1.41-1.97,2.44-2.55,1.03-.59,2.19-.88,3.49-.88s2.44.29,3.47.88c1.03.58,1.85,1.43,2.45,2.55.6,1.12.9,2.47.9,4.06ZM53.75,17.12c0-1.03-.15-1.9-.46-2.61-.3-.71-.73-1.24-1.29-1.61-.56-.37-1.21-.55-1.95-.55s-1.4.18-1.95.55c-.56.37-.99.9-1.3,1.61-.3.71-.46,1.58-.46,2.61s.15,1.9.46,2.61c.31.71.74,1.24,1.3,1.61.56.37,1.21.55,1.95.55s1.4-.18,1.95-.55c.56-.37.99-.9,1.29-1.61.31-.71.46-1.58.46-2.61Z"/>
</svg>