<?xml version="1.0" standalone="no"?>
<!DOCTYPE svg PUBLIC "-//W3C//DTD SVG 20010904//EN"
 "http://www.w3.org/TR/2001/REC-SVG-20010904/DTD/svg10.dtd">
<svg version="1.0" xmlns="http://www.w3.org/2000/svg"
 width="200.000000pt" height="200.000000pt" viewBox="0 0 200.000000 200.000000"
 preserveAspectRatio="xMidYMid meet">

<g transform="translate(0.000000,200.000000) scale(0.100000,-0.100000)"
fill="#000000" stroke="none">
<path d="M602 1293 c69 -71 86 -159 47 -240 -11 -23 -34 -54 -51 -68 -17 -14
-29 -27 -27 -28 2 -2 16 -10 30 -19 44 -28 59 -75 59 -182 l0 -96 75 0 75 0 0
98 c0 104 -20 170 -56 190 -18 10 -18 12 2 34 80 86 83 219 7 308 l-35 40 -81
0 -81 0 36 -37z"/>
<path d="M917 1288 c50 -51 63 -82 63 -149 0 -59 -26 -115 -70 -152 l-30 -26
30 -21 c48 -34 60 -69 63 -177 l2 -98 73 -3 72 -3 0 101 c0 109 -13 157 -50
183 l-23 16 28 33 c40 47 55 89 55 150 0 59 -24 119 -63 161 -24 25 -31 27
-109 27 l-82 0 41 -42z"/>
<path d="M1200 1320 c0 -5 4 -10 10 -10 16 0 69 -80 81 -123 16 -59 -4 -126
-53 -181 l-39 -46 35 -31 c44 -38 56 -79 56 -187 l0 -83 73 3 72 3 0 90 c0
109 -7 135 -45 178 l-30 34 22 19 c34 31 58 94 58 157 0 65 -15 107 -54 155
-27 31 -30 32 -107 32 -46 0 -79 -4 -79 -10z"/>
</g>
</svg>
