<?xml version="1.0" standalone="no"?>
<!DOCTYPE svg PUBLIC "-//W3C//DTD SVG 20010904//EN"
 "http://www.w3.org/TR/2001/REC-SVG-20010904/DTD/svg10.dtd">
<svg version="1.0" xmlns="http://www.w3.org/2000/svg"
 width="200.000000pt" height="200.000000pt" viewBox="0 0 200.000000 200.000000"
 preserveAspectRatio="xMidYMid meet">

<g transform="translate(0.000000,200.000000) scale(0.100000,-0.100000)"
fill="#000000" stroke="none">
<path d="M1475 1695 c-94 -33 -147 -139 -124 -246 40 -186 300 -217 380 -44
24 52 24 138 0 190 -43 95 -151 137 -256 100z m152 -72 c53 -35 71 -148 33
-211 -36 -59 -118 -78 -177 -42 -92 56 -88 214 7 263 40 21 96 16 137 -10z"/>
<path d="M310 1501 l0 -201 35 0 34 0 3 78 3 77 53 -1 c69 -2 88 -20 103 -95
11 -58 12 -59 46 -59 35 0 35 0 29 38 -14 76 -27 112 -46 125 -19 13 -19 14 5
36 55 47 56 117 4 167 -29 28 -33 29 -150 32 l-119 4 0 -201z m220 119 c24
-24 25 -48 4 -78 -13 -19 -24 -22 -85 -22 l-69 0 0 60 0 60 65 0 c52 0 69 -4
85 -20z"/>
<path d="M411 658 c-146 -72 -141 -301 9 -379 41 -21 139 -17 185 7 111 58
140 227 57 326 -56 67 -168 87 -251 46z m167 -58 c104 -63 69 -261 -48 -271
-56 -5 -83 2 -110 29 -56 56 -61 155 -12 214 44 52 112 63 170 28z"/>
<path d="M1320 471 l0 -201 29 0 c16 0 31 6 35 15 3 8 3 73 1 144 -2 72 -1
132 3 135 5 3 30 -62 57 -145 l49 -149 37 0 37 0 54 158 53 157 3 -157 3 -158
34 0 35 0 0 200 0 200 -53 0 -53 0 -54 -159 c-30 -88 -57 -157 -60 -155 -3 3
-28 74 -56 157 l-51 152 -51 3 -52 3 0 -200z"/>
</g>
</svg>
