<?xml version="1.0" standalone="no"?>
<!DOCTYPE svg PUBLIC "-//W3C//DTD SVG 20010904//EN"
 "http://www.w3.org/TR/2001/REC-SVG-20010904/DTD/svg10.dtd">
<svg version="1.0" xmlns="http://www.w3.org/2000/svg"
 width="200.000000pt" height="200.000000pt" viewBox="0 0 200.000000 200.000000"
 preserveAspectRatio="xMidYMid meet">

<g transform="translate(0.000000,200.000000) scale(0.100000,-0.100000)"
fill="#000000" stroke="none">
<path d="M0 1000 l0 -1000 1000 0 1000 0 0 1000 0 1000 -1000 0 -1000 0 0
-1000z m950 415 l0 -114 -117 -3 -118 -3 -3 -129 -3 -128 -36 7 c-166 31 -256
210 -178 353 57 105 117 130 313 131 l142 1 0 -115z m560 -115 l0 -230 -115 0
-115 0 0 115 0 115 -115 0 -115 0 0 115 0 115 230 0 230 0 0 -230z m-124 -365
c85 -35 144 -126 144 -222 0 -71 -24 -125 -75 -175 -58 -56 -105 -68 -267 -68
l-138 0 0 115 0 115 115 0 115 0 0 123 c0 68 3 126 6 130 8 8 59 -2 100 -18z
m-666 -120 l0 -115 115 0 115 0 0 -115 0 -115 -230 0 -230 0 0 230 0 230 115
0 115 0 0 -115z"/>
</g>
</svg>
