<?xml version="1.0" encoding="UTF-8"?>
<svg id="Layer_1" data-name="Layer 1" xmlns="http://www.w3.org/2000/svg" viewBox="0 0 99 19.53">
  <defs>
    <style>
      .cls-1 {
        fill: #020202;
      }
    </style>
  </defs>
  <path class="cls-1" d="M85.38,0h13.62v2.76h-10.38v5.58h9.57v2.73h-9.57v5.69h10.38v2.76h-13.62V0Z"/>
  <path class="cls-1" d="M66.48,16.38V3.15l3.15-3.15h9.15l3.1,3.1v2.57h-3.24v-1.42l-1.48-1.45h-5.86l-1.59,1.56v10.83l1.59,1.56h5.86l1.48-1.45v-1.42h3.24v2.57l-3.1,3.1h-9.15l-3.15-3.15Z"/>
  <path class="cls-1" d="M58.93,0h3.24v19.53h-3.24V0Z"/>
  <path class="cls-1" d="M32.72,0h3.26l2.62,14.71h.08L42.85,0h2.6l4.02,14.71h.11l2.6-14.71h3.26l-4.02,19.53h-3.13l-4.1-14.65h-.08l-4.24,14.65h-3.13L32.72,0Z"/>
  <path class="cls-1" d="M21.67,2.76h-5.86V0h14.96v2.76h-5.86v16.77h-3.24V2.76Z"/>
  <path class="cls-1" d="M.11,15.43L10.21,6v-2.15l-1.09-1.06h-4.8l-1.09,1.06v1.81H0v-2.79L2.87,0h7.7l2.87,2.87v4.07L3.43,16.19v.59h10.13v2.76H.11v-4.1Z"/>
</svg>